<svg width="468" height="157" viewBox="0 0 468 157" fill="none" xmlns="http://www.w3.org/2000/svg">
<mask id="path-1-inside-1" fill="white">
<path fill-rule="evenodd" clip-rule="evenodd" d="M0 0H452V157H226H0V79C5.52285 79 10 74.5229 10 69C10 63.4772 5.52285 59 0 59V0Z"/>
</mask>
<path d="M452 0H453V-1H452V0ZM0 0V-1H-1V0H0ZM452 157V158H453V157H452ZM0 157H-1V158H0V157ZM0 79V78H-1V79H0ZM0 59H-1V60H0V59ZM452 -1H0V1H452V-1ZM453 157V0H451V157H453ZM226 158H452V156H226V158ZM0 158H226V156H0V158ZM-1 79V157H1V79H-1ZM9 69C9 73.9706 4.97056 78 0 78V80C6.07513 80 11 75.0751 11 69H9ZM0 60C4.97056 60 9 64.0294 9 69H11C11 62.9249 6.07513 58 0 58V60ZM-1 0V59H1V0H-1Z" fill="#DB0000" mask="url(#path-1-inside-1)"/>
<rect x="21.5" y="76.5" width="409" height="59" fill="white" fill-opacity="0.6" stroke="#DB0000"/>
<rect x="395" y="76" width="1" height="60" fill="#DB0000"/>
<rect x="395" y="124" width="36" height="1" fill="#DB0000"/>
<rect x="21.5" y="51.5" width="59.9926" height="9" fill="white" stroke="#DB0000"/>
<path fill-rule="evenodd" clip-rule="evenodd" d="M21 21H31V31H21V21ZM25 23H27V25H29V27H27V29H25V27H23V25H25V23Z" fill="#DB0000"/>
<rect x="396.69" y="71.702" width="90.6628" height="9" transform="rotate(-45 396.69 71.702)" fill="white" stroke="#DB0000"/>
<path d="M392.545 83.3555L391.616 82.4272L397.609 72.7989L401.888 77.078L392.545 83.3555Z" fill="white" stroke="#DB0000"/>
<rect x="391.924" y="82" width="1.50414" height="2.72102" transform="rotate(45 391.924 82)" fill="#DB0000"/>
</svg>
