<svg fill="none" height="157" viewBox="0 0 468 157" width="468" xmlns="http://www.w3.org/2000/svg" xmlns:xlink="http://www.w3.org/1999/xlink"><mask id="a" fill="#fff"><path clip-rule="evenodd" d="m0 0h452v157h-226-226v-78c5.52285 0 10-4.4771 10-10 0-5.5228-4.47715-10-10-10z" fill="#fff" fill-rule="evenodd"/></mask><path d="m452 0h1v-1h-1zm-452 0v-1h-1v1zm452 157v1h1v-1zm-452 0h-1v1h1zm0-78v-1h-1v1zm0-20h-1v1h1zm452-60h-452v2h452zm1 158v-157h-2v157zm-227 1h226v-2h-226zm-226 0h226v-2h-226zm-1-79v78h2v-78zm10-10c0 4.9706-4.02944 9-9 9v2c6.07513 0 11-4.9249 11-11zm-9-9c4.97056 0 9 4.0294 9 9h2c0-6.0751-4.92487-11-11-11zm-1-60v59h2v-59z" fill="#db0000" mask="url(#a)"/><path d="m21.5 76.5h409v59h-409z" fill="#fff" fill-opacity=".6" stroke="#db0000"/><path d="m395 76h1v60h-1z" fill="#db0000"/><path d="m395 124h36v1h-36z" fill="#db0000"/><path d="m21.5 51.5h59.9926v9h-59.9926z" fill="#fff" stroke="#db0000"/><path clip-rule="evenodd" d="m21 21h10v10h-10zm4 2h2v2h2v2h-2v2h-2v-2h-2v-2h2z" fill="#db0000" fill-rule="evenodd"/><path d="m396.69 71.702h90.6628v9h-90.6628z" fill="#fff" stroke="#db0000" transform="matrix(.70710678 -.70710678 .70710678 .70710678 65.486841 301.503219)"/><path d="m392.545 83.3555-.929-.9283 5.993-9.6283 4.279 4.2791z" fill="#fff" stroke="#db0000"/><path d="m391.924 82h1.50414v2.72102h-1.50414z" fill="#db0000" transform="matrix(.70710678 .70710678 -.70710678 .70710678 172.774638 -253.114874)"/></svg>