<svg fill="none" height="31" viewBox="0 0 31 31" width="31" xmlns="http://www.w3.org/2000/svg"><path d="m0 0h31v31h-31z" fill="#fff"/><path clip-rule="evenodd" d="m0 0h1.9375v1.9375h1.9375v-1.9375h1.9375v3.875h1.9375v-3.875h1.9375v5.8125h1.9375v1.9375h1.9375v-1.9375h1.9375v-1.9375h1.9375v3.875h1.9375v1.9375h-1.9375v3.875h-1.9375v1.9375h1.9375v7.75h1.9375v3.875h1.9375v-3.875h1.9375v3.875h1.9375v1.9375h1.9375v-1.9375h1.9375v1.9375h1.9375v1.9375h-29.0625-1.9375v-1.9375zm29.0625 25.1875h-1.9375v1.9375h-1.9375v-5.8125h1.9375 3.875v1.9375h-1.9375zm0 0v1.9375h1.9375v-1.9375zm-11.625-9.6875v-1.9375h1.9375v1.9375zm-1.9375-13.5625v1.9375h-1.9375v1.9375h-1.9375v-5.8125h1.9375v1.9375zm0 0v-1.9375h1.9375v1.9375zm1.9375 23.25h-1.9375-1.9375v1.9375h-1.9375v-3.875h1.9375v-3.875h1.9375v-1.9375h-3.875v-1.9375h1.9375v-3.875h-1.9375v3.875h-1.9375v-1.9375h-1.9375v1.9375h1.9375v1.9375h1.9375v3.875h-1.9375-1.9375v-3.875h-1.9375-1.9375v1.9375h1.9375v5.8125h-1.9375-1.9375v1.9375h1.9375v1.9375h1.9375v-3.875h1.9375 1.9375v1.9375h-1.9375v1.9375h9.6875zm-11.625-11.625v-1.9375h1.9375v-3.875h-1.9375v3.875h-1.9375v1.9375zm-1.9375-9.6875h-1.9375v1.9375h1.9375zm17.4375 13.5625h-1.9375v3.875h1.9375 1.9375v-1.9375h1.9375v-1.9375h1.9375v1.9375h3.875v-1.9375h-3.875v-1.9375h3.875v-1.9375h-3.875v-1.9375h3.875v-1.9375h-3.875-1.9375v5.8125h-1.9375-1.9375zm-1.9375-17.4375h1.9375v1.9375h-1.9375zm5.8125 0h-1.9375v1.9375h1.9375zm-3.875 3.875h1.9375v1.9375h-1.9375zm1.9375 5.8125h-1.9375v1.9375h1.9375zm7.75-3.875h-1.9375v1.9375h1.9375zm-1.9375-5.8125h-1.9375v1.9375 1.9375h1.9375 1.9375v-1.9375h-1.9375z" fill="#db0000" fill-rule="evenodd"/></svg>